<?xml version="1.0" encoding="iso-8859-1"?>
<!-- Uploaded to: SVG Repo, www.svgrepo.com, Generator: SVG Repo Mixer Tools -->
<svg fill="#000000" height="800px" width="800px" version="1.1" id="Capa_1" xmlns="http://www.w3.org/2000/svg" xmlns:xlink="http://www.w3.org/1999/xlink" 
	 viewBox="0 0 216.391 216.391" xml:space="preserve">
<g id="XMLID_3_">
	<path id="XMLID_4_" style="fill:none;" d="M66.564,85.692c-12.164,0-22.061,9.896-22.061,22.06s9.896,22.061,22.061,22.061
		s22.061-9.896,22.061-22.061S78.728,85.692,66.564,85.692z"/>
	<path id="XMLID_9_" style="fill:none;" d="M125.091,85.692c-12.164,0-22.061,9.896-22.061,22.06s9.896,22.061,22.061,22.061
		s22.061-9.896,22.061-22.061S137.255,85.692,125.091,85.692z"/>
	<path id="XMLID_58_" d="M17.948,97.66c-4.843,0-9.367,1.853-12.756,5.058V86.692h25.621c1.104,0,2-0.896,2-2s-0.896-2-2-2H3.192
		c-1.104,0-2,0.896-2,2v23.984c0,0.923,0.632,1.727,1.53,1.944c0.896,0.218,1.827-0.209,2.249-1.03
		c2.511-4.891,7.484-7.93,12.977-7.93c8.037,0,14.576,6.539,14.576,14.577c0,8.037-6.539,14.576-14.576,14.576
		c-6.487,0-12.254-4.353-14.024-10.584c-0.302-1.062-1.405-1.679-2.47-1.377c-1.063,0.302-1.679,1.408-1.377,2.47
		c2.256,7.944,9.605,13.492,17.872,13.492c10.243,0,18.576-8.333,18.576-18.576S28.191,97.66,17.948,97.66z"/>
	<path id="XMLID_61_" d="M66.564,81.692c-14.37,0-26.061,11.69-26.061,26.06s11.691,26.061,26.061,26.061
		s26.061-11.691,26.061-26.061S80.934,81.692,66.564,81.692z M66.564,129.813c-12.164,0-22.061-9.896-22.061-22.061
		s9.896-22.06,22.061-22.06s22.061,9.896,22.061,22.06S78.728,129.813,66.564,129.813z"/>
	<path id="XMLID_64_" d="M125.091,81.692c-14.37,0-26.061,11.69-26.061,26.06s11.691,26.061,26.061,26.061
		s26.061-11.691,26.061-26.061S139.46,81.692,125.091,81.692z M125.091,129.813c-12.164,0-22.061-9.896-22.061-22.061
		s9.896-22.06,22.061-22.06s22.061,9.896,22.061,22.06S137.255,129.813,125.091,129.813z"/>
	<path id="XMLID_65_" d="M171.218,81.641c-7.475,0-13.556,6.081-13.556,13.556v25.741c0,1.104,0.896,2,2,2s2-0.896,2-2V95.197
		c0-5.269,4.287-9.556,9.556-9.556s9.556,4.287,9.556,9.556s-4.287,9.556-9.556,9.556c-0.311,0-0.618-0.015-0.921-0.043
		c-1.095-0.102-2.077,0.7-2.182,1.8c-0.105,1.099,0.7,2.076,1.8,2.182c0.429,0.042,0.863,0.062,1.303,0.062
		c7.475,0,13.556-6.081,13.556-13.556C184.773,87.722,178.692,81.641,171.218,81.641z"/>
	<path id="XMLID_66_" d="M215.797,106.331l-10.73-10.616l10.616-10.73c0.777-0.785,0.77-2.052-0.015-2.829
		c-0.786-0.776-2.052-0.77-2.829,0.015l-10.616,10.73l-10.796-10.682c-0.786-0.777-2.052-0.77-2.829,0.015s-0.77,2.052,0.015,2.829
		l10.796,10.682l-10.682,10.797c-0.777,0.785-0.77,2.052,0.015,2.829c0.39,0.386,0.898,0.578,1.407,0.578
		c0.515,0,1.031-0.198,1.422-0.593l10.682-10.797l10.73,10.616c0.39,0.386,0.898,0.578,1.407,0.578c0.515,0,1.031-0.198,1.422-0.593
		C216.589,108.374,216.582,107.107,215.797,106.331z"/>
</g>
</svg>