<svg width="68" height="68" viewBox="0 0 68 68" fill="none" xmlns="http://www.w3.org/2000/svg">
<path d="M29.201 4.40976C30.6034 -0.385639 37.3966 -0.385639 38.799 4.40976L43.6403 20.9642C44.119 22.601 45.399 23.881 47.0358 24.3597L63.5902 29.201C68.3856 30.6034 68.3856 37.3966 63.5902 38.799L47.0358 43.6403C45.399 44.119 44.119 45.399 43.6403 47.0358L38.799 63.5902C37.3966 68.3856 30.6034 68.3856 29.201 63.5902L24.3597 47.0358C23.881 45.399 22.601 44.119 20.9642 43.6403L4.40976 38.799C-0.385639 37.3966 -0.385639 30.6034 4.40976 29.201L20.9642 24.3597C22.601 23.881 23.881 22.601 24.3597 20.9642L29.201 4.40976Z" fill="white"/>
</svg>
