<svg width="66" height="66" viewBox="0 0 66 66" fill="none" xmlns="http://www.w3.org/2000/svg">
<path d="M28.1267 4.23225C29.3146 -0.943049 36.6854 -0.943037 37.8733 4.23226L41.6329 20.6124C42.0616 22.48 43.52 23.9384 45.3876 24.3671L61.7678 28.1267C66.943 29.3146 66.943 36.6854 61.7677 37.8733L45.3876 41.6329C43.52 42.0616 42.0616 43.52 41.6329 45.3876L37.8733 61.7678C36.6854 66.943 29.3146 66.943 28.1267 61.7677L24.3671 45.3876C23.9384 43.52 22.48 42.0616 20.6124 41.6329L4.23225 37.8733C-0.943049 36.6854 -0.943037 29.3146 4.23226 28.1267L20.6124 24.3671C22.48 23.9384 23.9384 22.48 24.3671 20.6124L28.1267 4.23225Z" fill="white"/>
</svg>
